# Blender v2.80 (sub 75) OBJ File: 'pine.blend'
# www.blender.org
mtllib Pine_4.mtl
o Pine_4
v 2.380020 2.208415 -0.720703
v 2.316875 1.915702 -0.543903
v 2.383127 1.900845 -0.202850
v 2.512523 2.178701 -0.038598
v 2.575772 2.471720 -0.215404
v 2.509520 2.486577 -0.556457
v 1.143084 0.636095 -1.296863
v 1.535779 2.456459 -2.396369
v 1.555101 0.543700 0.824116
v 2.359811 2.271671 1.845590
v 2.752505 4.092034 0.746084
v 2.340489 4.184428 -1.374895
v 3.840734 1.261010 -0.941889
v 3.930040 1.674990 -1.191934
v 3.934433 1.239998 -0.459545
v 4.117437 1.632966 -0.227246
v 4.206742 2.046945 -0.477291
v 4.113043 2.067957 -0.959635
v 6.670241 0.880914 -1.331927
v 6.698103 0.874666 -1.188496
v 6.671548 0.695362 -1.116590
v 6.617129 0.563725 -1.186311
v 6.615823 0.707858 -1.403452
v 6.589266 0.569973 -1.329742
v 2.586397 0.380218 -1.377872
v 2.904112 1.968358 -2.262416
v 2.919744 0.305465 0.338134
v 3.570805 1.818852 1.169594
v 3.888519 3.291641 0.280025
v 3.555173 3.366393 -1.435979
v 5.642294 0.791004 -1.168615
v 5.680411 0.984085 -1.274624
v 5.682287 0.782036 -0.962743
v 5.760395 0.966148 -0.862881
v 5.798512 1.212025 -0.966590
v 5.758520 1.220994 -1.172462
v 4.820311 1.354997 -2.081677
v 4.605833 0.201769 -1.488089
v 4.830863 0.151306 -0.329678
v 5.270370 1.254071 0.235144
v 5.484847 2.248295 -0.365371
v 0.653911 3.118837 -0.172051
v 5.259817 2.298758 -1.523781
v 6.017063 0.877985 -1.934037
v 6.310265 1.584066 -1.558523
v 6.460386 1.550402 -0.785727
v 6.317307 0.810656 -0.388445
v 6.024102 0.131856 -0.762770
v 5.873981 0.165520 -1.535566
v 8.698562 0.250893 -1.678831
v 0.721509 3.103678 0.175932
v 0.463525 2.879730 0.397179
v 0.331499 2.596228 0.229589
v 0.263900 2.611387 -0.118394
v 0.328329 2.910048 -0.298787
v -0.151922 -0.475917 -0.804280
v 0.601969 -0.487225 -0.544691
v 0.753891 -0.521293 0.237373
v 0.151922 -0.544053 0.759848
v -0.601969 -0.532745 0.500259
v -0.753891 -0.498677 -0.281805
v -0.468311 0.799049 -0.126752
v -0.373939 0.777886 0.359060
v 0.094373 0.770862 0.520314
v 0.468311 0.785000 0.195757
v 0.373939 0.806163 -0.290056
v -0.335447 2.593255 -0.002757
v -0.267849 2.578096 0.345226
v 0.067598 2.573064 0.460731
v 0.335447 2.583192 0.228253
v 0.267849 2.598350 -0.119730
v -0.067598 2.603382 -0.235235
v -0.094373 0.813187 -0.451310
v -0.363268 1.664066 -0.052832
v -0.290063 1.647650 0.324011
v 0.073205 1.642201 0.449096
v 0.363268 1.653168 0.197337
v 0.290063 1.669584 -0.179506
v -0.073205 1.675033 -0.304591
v 0.593477 2.819373 -0.353312
v 0.722872 3.095347 -0.186005
v 0.790296 3.080227 0.161082
v 0.728325 2.789134 0.340861
v 0.596638 2.506361 0.173703
v 0.529214 2.521481 -0.173384
v 0.713230 3.074784 -0.198471
v -0.348588 -0.536546 0.587507
v -0.170110 0.774829 0.429244
v -0.277854 1.667295 -0.126967
v -0.236883 2.596982 -0.088305
v -0.129013 1.645234 0.379466
v -0.355657 0.803308 -0.224530
v -0.536521 -0.490458 -0.470469
v -0.162454 2.576515 0.381516
v -0.092411 2.883832 0.395088
v -0.197806 2.885413 0.358797
v -0.265404 2.900572 0.010815
v -0.166840 2.904298 -0.074733
vt 0.222526 0.768209
vt 0.222222 0.849043
vt 0.213640 0.847969
vt 0.213792 0.767116
vt 0.196475 0.847969
vt 0.196324 0.767116
vt 0.187893 0.849043
vt 0.187589 0.768209
vt 0.143806 0.768209
vt 0.143502 0.849043
vt 0.134920 0.847969
vt 0.135071 0.767116
vt 0.766730 0.228225
vt 0.760162 0.232756
vt 0.717657 0.209108
vt 0.758502 0.180929
vt 0.117755 0.847969
vt 0.117603 0.767116
vt 0.109172 0.849043
vt 0.108869 0.768209
vt 0.116952 0.767197
vt 0.809210 0.232756
vt 0.809210 0.241818
vt 0.766730 0.265466
vt 0.766730 0.209108
vt 0.640879 0.224382
vt 0.677583 0.180929
vt 0.717657 0.241528
vt 0.709310 0.251410
vt 0.719594 0.145945
vt 0.756298 0.102491
vt 0.796372 0.163091
vt 0.788025 0.172973
vt 0.638942 0.259366
vt 0.708870 0.259366
vt 0.638942 0.180929
vt 0.640879 0.145945
vt 0.709310 0.172973
vt 0.708870 0.180929
vt 0.717657 0.180929
vt 0.787585 0.180929
vt 0.677583 0.102491
vt 0.717657 0.163091
vt 0.760162 0.241818
vt 0.717657 0.265466
vt 0.766730 0.246350
vt 0.758502 0.293646
vt 0.815768 0.246350
vt 0.807517 0.293646
vt 0.815768 0.228225
vt 0.807517 0.180929
vt 0.915192 0.311313
vt 0.915192 0.324130
vt 0.879208 0.340520
vt 0.879208 0.294923
vt 0.677104 0.371835
vt 0.673145 0.369100
vt 0.683862 0.343790
vt 0.706138 0.359180
vt 0.916404 0.232935
vt 0.925680 0.239343
vt 0.912207 0.272124
vt 0.879208 0.249325
vt 0.924480 0.330538
vt 0.912254 0.363319
vt 0.810363 0.312275
vt 0.810363 0.316086
vt 0.790372 0.324448
vt 0.790372 0.303913
vt 0.657224 0.270742
vt 0.702382 0.259366
vt 0.702382 0.339786
vt 0.696964 0.341150
vt 0.834050 0.276728
vt 0.879208 0.265352
vt 0.879208 0.345772
vt 0.873790 0.347137
vt 0.834050 0.192305
vt 0.879208 0.180929
vt 0.879208 0.261348
vt 0.873790 0.262713
vt 0.815768 0.298726
vt 0.871597 0.349776
vt 0.815768 0.214303
vt 0.871597 0.265352
vt 0.638942 0.292740
vt 0.694771 0.343790
vt 0.916404 0.220118
vt 0.879208 0.203728
vt 0.813121 0.317992
vt 0.805233 0.334715
vt 0.924480 0.304905
vt 0.912254 0.272124
vt 0.669180 0.377306
vt 0.673145 0.380041
vt 0.661250 0.405352
vt 0.638942 0.389961
vt 0.925680 0.213710
vt 0.912207 0.180929
vt 0.793135 0.357155
vt 0.793135 0.353344
vt 0.813120 0.344982
vt 0.813120 0.365517
vt 0.756519 0.346948
vt 0.755007 0.348799
vt 0.717657 0.316532
vt 0.729868 0.301579
vt 0.835234 0.155794
vt 0.833722 0.157645
vt 0.796372 0.125378
vt 0.808583 0.110425
vt 0.877861 0.155794
vt 0.876349 0.157645
vt 0.839000 0.125378
vt 0.851211 0.110425
vt 0.839000 0.154811
vt 0.839000 0.102491
vt 0.881627 0.154811
vt 0.881627 0.102491
vt 0.669180 0.371835
vt 0.638942 0.359180
vt 0.677104 0.377306
vt 0.706138 0.389961
vt 0.661250 0.343790
vt 0.813121 0.310369
vt 0.805233 0.293646
vt 0.683862 0.405352
vt 0.881627 0.114356
vt 0.890925 0.105396
vt 0.911715 0.175091
vt 0.760285 0.345966
vt 0.760285 0.293646
vt 0.911715 0.114356
vt 0.921013 0.105396
vt 0.941803 0.175091
vt 0.941803 0.102491
vt 0.911715 0.102491
vt 0.760285 0.305511
vt 0.769583 0.296550
vt 0.790372 0.366245
vt 0.790372 0.293646
vt 0.790372 0.351438
vt 0.798238 0.334715
vt 0.790372 0.359061
vt 0.798238 0.375784
vt 0.137845 0.755461
vt 0.114358 0.755520
vt 0.117580 0.755116
vt 0.135094 0.755116
vt 0.224024 0.717109
vt 0.222571 0.756212
vt 0.213815 0.755116
vt 0.214541 0.715923
vt 0.196301 0.755116
vt 0.195575 0.715923
vt 0.187544 0.756212
vt 0.186092 0.717109
vt 0.145303 0.717109
vt 0.143851 0.756212
vt 0.137845 0.755461
vt 0.140024 0.716449
vt 0.135820 0.715923
vt 0.135094 0.755116
vt 0.117580 0.755116
vt 0.116854 0.715923
vt 0.114358 0.755520
vt 0.114062 0.716272
vt 0.106657 0.623428
vt 0.114112 0.679128
vt 0.110429 0.679589
vt 0.099551 0.624317
vt 0.146017 0.623428
vt 0.138562 0.679128
vt 0.165697 0.625890
vt 0.150787 0.680657
vt 0.143883 0.679793
vt 0.152632 0.624255
vt 0.185378 0.623428
vt 0.192833 0.679128
vt 0.180607 0.680657
vt 0.224738 0.623428
vt 0.217283 0.679128
vt 0.244418 0.625890
vt 0.229508 0.680657
vt 0.117580 0.755116
vt 0.135094 0.755116
vt 0.143851 0.756212
vt 0.196301 0.755116
vt 0.187544 0.756212
vt 0.213815 0.755116
vt 0.222571 0.756212
vt 0.108824 0.756212
vt 0.108824 0.756212
vt 0.101887 0.680657
vt 0.086977 0.625890
vt 0.107371 0.717109
vn -0.3223 -0.4375 -0.8395
vn -0.3171 -0.9482 0.0203
vn 0.0077 -0.5115 0.8592
vn 0.3274 0.4402 0.8361
vn -0.8766 0.1353 0.4617
vn 0.3186 0.9477 -0.0206
vn -0.0017 0.5140 -0.8578
vn -0.7750 0.6067 0.1770
vn 0.7769 0.1942 0.5989
vn 0.2358 -0.9678 -0.0880
vn 0.7726 0.6229 -0.1229
vn 0.2314 -0.5391 -0.8098
vn 0.5085 -0.6012 0.6164
vn 0.4998 0.2563 -0.8273
vn -0.9817 -0.0059 0.1904
vn -0.9833 0.1593 -0.0876
vn -0.7733 0.4416 0.4550
vn -0.8800 0.4655 -0.0943
vn -0.9267 -0.3375 0.1653
vn -0.4896 0.4726 0.7327
vn -0.5648 0.4908 0.6635
vn -0.9319 -0.0178 -0.3623
vn -0.5172 0.8448 0.1373
vn 0.4085 0.3062 -0.8599
vn 0.7052 0.2397 0.6673
vn 0.1376 -0.9880 -0.0698
vn 0.7002 0.7062 -0.1053
vn 0.4290 -0.5691 0.7015
vn 0.1264 -0.5013 -0.8560
vn -0.6027 0.7835 0.1512
vn -0.4902 0.4958 0.7169
vn -0.7291 -0.0633 0.6814
vn -0.9152 -0.0412 -0.4008
vn -0.7637 0.5354 -0.3607
vn -0.8987 -0.4096 0.1567
vn 0.1564 -0.4764 -0.8652
vn 0.4606 -0.5446 0.7009
vn 0.7121 0.6937 -0.1081
vn 0.1881 -0.9790 -0.0792
vn 0.7171 0.2297 0.6580
vn -0.9146 -0.3706 0.1615
vn -0.5213 0.8422 0.1380
vn -0.6997 -0.0895 0.7088
vn -0.7144 0.5461 -0.4375
vn -0.7202 0.5243 -0.4543
vn 0.2915 -0.5554 0.7788
vn 0.4229 0.2957 -0.8566
vn 0.4845 0.8730 -0.0561
vn 0.5085 0.3290 0.7957
vn 0.0277 -0.9984 -0.0489
vn -0.0298 -0.4834 -0.8749
vn 0.1796 0.4027 -0.8975
vn -0.8999 -0.0548 -0.4327
vn -0.6737 -0.1055 0.7314
vn -0.0000 0.9991 0.0435
vn 0.3257 0.0685 -0.9430
vn 0.9813 0.0356 -0.1891
vn 0.6556 -0.0055 0.7551
vn -0.3257 -0.0138 0.9454
vn -0.9813 0.0191 0.1915
vn -0.6556 0.0602 -0.7527
vn -0.6430 0.2288 -0.7309
vn -0.9625 0.1885 0.1952
vn -0.3195 0.1563 0.9346
vn 0.6430 0.1644 0.7480
vn 0.9625 0.2047 -0.1781
vn 0.3195 0.2370 -0.9175
vn -0.6518 0.1428 -0.7448
vn -0.9757 0.1019 0.1940
vn -0.3239 0.0693 0.9436
vn 0.6518 0.0775 0.7544
vn 0.9757 0.1184 -0.1844
vn 0.3239 0.1510 -0.9340
vn 0.0031 0.5174 -0.8558
vn 0.3296 0.4440 0.8332
vn -0.5758 0.5101 0.6389
vn -0.7713 0.6115 0.1765
vn 0.0015 0.5176 -0.8556
vn -0.7645 0.5524 -0.3323
vn -0.3250 0.0323 0.9452
vn -0.9581 0.2097 0.1952
vn -0.6486 0.1805 -0.7394
vn 0.9637 -0.2125 -0.1619
usemtl Pine
s off
f 80/1/1 1/2/1 2/3/1 85/4/1
f 85/4/2 2/3/2 3/5/2 84/6/2
f 84/6/3 3/5/3 4/7/3 83/8/3
f 83/9/4 4/10/4 5/11/4 82/12/4
f 1/13/5 6/14/5 12/15/5 8/16/5
f 82/12/6 5/11/6 6/17/6 81/18/6
f 81/18/7 6/17/7 1/19/7 80/20/7 86/21/7
f 3/22/8 2/23/8 7/24/8 9/25/8
f 11/26/9 10/27/9 16/28/9 17/29/9
f 9/30/10 7/31/10 13/32/10 15/33/10
f 12/34/11 11/26/11 17/29/11 18/35/11
f 7/36/12 8/37/12 14/38/12 13/39/12
f 10/40/13 9/30/13 15/33/13 16/41/13
f 8/37/14 12/42/14 18/43/14 14/38/14
f 6/14/15 5/44/15 11/45/15 12/15/15
f 5/44/16 4/46/16 10/47/16 11/45/16
f 2/23/17 1/48/17 8/49/17 7/24/17
f 4/50/18 3/22/18 9/25/18 10/51/18
f 18/52/19 17/53/19 29/54/19 30/55/19
f 31/56/20 32/57/20 37/58/20 38/59/20
f 13/60/21 14/61/21 26/62/21 25/63/21
f 17/53/22 16/64/22 28/65/22 29/54/22
f 22/66/23 24/67/23 49/68/23 48/69/23
f 26/70/24 30/71/24 36/72/24 32/73/24
f 29/74/25 28/75/25 34/76/25 35/77/25
f 27/78/26 25/79/26 31/80/26 33/81/26
f 30/82/27 29/74/27 35/77/27 36/83/27
f 28/84/28 27/78/28 33/81/28 34/85/28
f 25/86/29 26/70/29 32/73/29 31/87/29
f 15/88/30 13/60/30 25/63/30 27/89/30
f 24/67/31 23/90/31 44/91/31 49/68/31
f 14/92/32 18/52/32 30/55/32 26/93/32
f 35/94/33 34/95/33 40/96/33 41/97/33
f 16/98/34 15/88/34 27/89/34 28/99/34
f 19/100/35 20/101/35 46/102/35 45/103/35
f 23/104/36 24/105/36 38/106/36 37/107/36
f 22/108/37 21/109/37 40/110/37 39/111/37
f 20/112/38 19/113/38 43/114/38 41/115/38
f 24/116/39 22/108/39 39/111/39 38/117/39
f 21/118/40 20/112/40 41/115/40 40/119/40
f 36/120/41 35/94/41 41/97/41 43/121/41
f 33/122/42 31/56/42 38/59/42 39/123/42
f 32/57/43 36/120/43 43/121/43 37/124/43
f 21/125/44 22/66/44 48/69/44 47/126/44
f 34/95/45 33/122/45 39/123/45 40/127/45
f 47/128/46 48/129/46 50/130/46
f 19/131/47 23/104/47 37/107/47 43/132/47
f 45/133/48 46/134/48 50/135/48
f 46/134/49 47/136/49 50/135/49
f 48/129/50 49/137/50 50/130/50
f 49/138/51 44/139/51 50/140/51
f 44/139/52 45/141/52 50/140/52
f 20/101/53 21/142/53 47/143/53 46/102/53
f 23/144/54 19/100/54 45/103/54 44/145/54
f 95/146/55 98/147/55 97/148/55 96/149/55
f 79/150/56 72/151/56 71/152/56 78/153/56
f 78/153/57 71/152/57 70/154/57 77/155/57
f 77/155/58 70/154/58 69/156/58 76/157/58
f 76/158/59 69/159/59 94/160/59 91/161/59
f 75/162/60 68/163/60 67/164/60 74/165/60
f 74/165/61 67/164/61 90/166/61 89/167/61
f 61/168/62 62/169/62 92/170/62 93/171/62
f 60/172/63 63/173/63 62/169/63 61/168/63
f 59/174/64 64/175/64 88/176/64 87/177/64
f 58/178/65 65/179/65 64/180/65 59/174/65
f 57/181/66 66/182/66 65/179/66 58/178/66
f 56/183/67 73/184/67 66/182/67 57/181/67
f 62/169/68 74/165/68 89/167/68 92/170/68
f 63/173/69 75/162/69 74/165/69 62/169/69
f 64/175/70 76/158/70 91/161/70 88/176/70
f 65/179/71 77/155/71 76/157/71 64/180/71
f 66/182/72 78/153/72 77/155/72 65/179/72
f 73/184/73 79/150/73 78/153/73 66/182/73
f 42/185/74 81/18/74 86/21/74
f 51/186/6 82/12/6 81/18/6 42/185/6
f 52/187/75 83/9/75 82/12/75 51/186/75
f 53/188/3 84/6/3 83/8/3 52/189/3
f 54/190/2 85/4/2 84/6/2 53/188/2
f 55/191/1 80/1/1 85/4/1 54/190/1
f 55/192/76 54/190/76 42/185/76
f 42/185/77 53/188/77 51/186/77
f 86/21/78 80/20/78 55/192/78 42/185/78
f 51/186/79 53/188/79 52/187/79
f 53/188/77 42/185/77 54/190/77
f 72/193/55 90/166/55 94/160/55 69/159/55 70/154/55 71/152/55
f 68/163/80 94/160/80 95/146/80 96/149/80
f 93/171/62 92/170/62 73/194/62 56/195/62
f 91/161/59 94/160/59 68/163/59 75/162/59
f 88/176/70 91/161/70 75/162/70 63/173/70
f 87/177/64 88/176/64 63/173/64 60/172/64
f 89/167/61 90/166/61 72/193/61 79/196/61
f 92/170/68 89/167/68 79/196/68 73/194/68
f 67/164/81 68/163/81 96/149/81 97/148/81
f 90/166/82 67/164/82 97/148/82 98/147/82
f 94/160/83 90/166/83 98/147/83 95/146/83
